<?xml version="1.0" encoding="iso-8859-1"?>
<!-- Generator: Adobe Illustrator 19.0.0, SVG Export Plug-In . SVG Version: 6.00 Build 0)  -->
<svg version="1.1" id="Capa_1" xmlns="http://www.w3.org/2000/svg" xmlns:xlink="http://www.w3.org/1999/xlink" x="0px" y="0px"
	 viewBox="0 0 512 512" style="enable-background:new 0 0 512 512;" xml:space="preserve">
<g>
	<g>
		<path d="M376,0c-11.247,0-232.343,0-240,0c-33.084,0-60,26.916-60,60v392c0,33.084,26.916,60,60,60h240c33.084,0,60-26.916,60-60
			V60C436,26.916,409.084,0,376,0z M396,452c0,11.028-8.972,20-20,20H136c-11.028,0-20-8.972-20-20V60c0-11.028,8.972-20,20-20
			h35.629l4.166,12.379C178.533,60.518,186.163,66,194.75,66h122.5c8.587,0,16.217-5.482,18.955-13.621L340.371,40H376
			c11.028,0,20,8.972,20,20V452z"/>
	</g>
</g>
<g>
</g>
<g>
</g>
<g>
</g>
<g>
</g>
<g>
</g>
<g>
</g>
<g>
</g>
<g>
</g>
<g>
</g>
<g>
</g>
<g>
</g>
<g>
</g>
<g>
</g>
<g>
</g>
<g>
</g>
</svg>
